<svg width="1251" height="649" viewBox="0 0 1251 649" fill="none" xmlns="http://www.w3.org/2000/svg">
<path d="M1098.86 478.298C1100.03 477.056 1099.85 475.212 1098.45 474.17C1097.06 473.128 1094.99 473.289 1093.82 474.531C1092.64 475.773 1092.82 477.617 1094.22 478.659C1095.62 479.701 1097.69 479.54 1098.86 478.298Z" fill="#AAAAAA"/>
<path d="M1233.79 502.158C1233.43 498.498 1236.47 495.271 1240.58 494.951C1244.69 494.63 1248.32 497.337 1248.68 500.997C1249.04 504.658 1246 507.884 1241.88 508.205C1237.77 508.525 1234.15 505.818 1233.79 502.158Z" fill="#AAAAAA"/>
<path d="M990.961 407.284C992.761 405.361 992.491 402.516 990.331 400.872C988.17 399.229 984.974 399.51 983.129 401.433C981.283 403.357 981.598 406.202 983.759 407.845C985.919 409.489 989.16 409.208 990.961 407.284Z" fill="#AAAAAA"/>
<path d="M872.847 508.354C875.188 505.829 874.828 502.102 872.037 500.018C869.201 497.934 865.015 498.255 862.674 500.74C860.334 503.264 860.694 506.991 863.484 509.075C866.275 511.199 870.462 510.879 872.847 508.354Z" fill="#AAAAAA"/>
<path d="M1229.65 442.805C1229.51 441.372 1230.7 440.107 1232.31 439.981C1233.92 439.854 1235.34 440.913 1235.48 442.346C1235.63 443.779 1234.44 445.043 1232.83 445.17C1231.22 445.297 1229.8 444.238 1229.65 442.805Z" fill="#AAAAAA"/>
<path d="M1041.51 549.952C1038.9 549.952 1036.78 548.068 1036.78 545.744C1036.78 543.42 1038.9 541.536 1041.51 541.536C1044.12 541.536 1046.24 543.42 1046.24 545.744C1046.24 548.068 1044.12 549.952 1041.51 549.952Z" fill="#AAAAAA"/>
<path d="M1245.56 37.4756C1245.47 34.3561 1248.23 31.7595 1251.74 31.676C1255.24 31.5924 1258.16 34.0536 1258.25 37.1731C1258.35 40.2926 1255.58 42.889 1252.08 42.9725C1248.57 43.0561 1245.66 40.5951 1245.56 37.4756Z" fill="#AAAAAA"/>
<path d="M1202.16 346.331C1203.11 345.329 1202.97 343.806 1201.85 342.964C1200.72 342.123 1199.01 342.243 1198.07 343.245C1197.12 344.247 1197.25 345.77 1198.38 346.611C1199.51 347.453 1201.22 347.333 1202.16 346.331Z" fill="#AAAAAA"/>
<path d="M1078.49 543.265C1074.55 542.26 1072.27 538.599 1073.39 535.088C1074.52 531.577 1078.63 529.546 1082.58 530.551C1086.52 531.556 1088.8 535.217 1087.67 538.728C1086.55 542.239 1082.43 544.27 1078.49 543.265Z" fill="#AAAAAA"/>
<path d="M977.412 633.148C972.788 633.148 969.039 629.81 969.039 625.694C969.039 621.577 972.788 618.24 977.412 618.24C982.036 618.24 985.784 621.577 985.784 625.694C985.784 629.81 982.036 633.148 977.412 633.148Z" fill="#AAAAAA"/>
<path d="M824.149 402.263C823.94 400.125 825.718 398.24 828.12 398.054C830.522 397.868 832.639 399.451 832.848 401.589C833.057 403.728 831.279 405.613 828.877 405.799C826.475 405.985 824.358 404.402 824.149 402.263Z" fill="#2A1BB8" fill-opacity="0.7"/>
<path d="M1213.37 577.794C1213.24 575.939 1214.82 574.34 1216.91 574.222C1218.99 574.105 1220.79 575.514 1220.92 577.369C1221.05 579.224 1219.47 580.824 1217.39 580.941C1215.3 581.059 1213.51 579.65 1213.37 577.794Z" fill="#AAAAAA"/>
<path d="M1214.84 369.319C1214.73 366.222 1217.46 363.633 1220.94 363.537C1224.42 363.441 1227.33 365.873 1227.43 368.97C1227.54 372.067 1224.81 374.656 1221.33 374.753C1217.85 374.849 1214.95 372.416 1214.84 369.319Z" fill="#AAAAAA"/>
<path d="M795.92 645.812C796.91 644.77 796.73 643.207 795.56 642.365C794.389 641.524 792.634 641.644 791.689 642.686C790.698 643.728 790.879 645.291 792.049 646.132C793.219 646.974 794.93 646.854 795.92 645.812Z" fill="#AAAAAA"/>
<path d="M1183.86 602.807C1181.84 600.652 1182.16 597.442 1184.58 595.638C1187 593.834 1190.6 594.118 1192.63 596.274C1194.66 598.429 1194.34 601.639 1191.92 603.443C1189.49 605.248 1185.89 604.963 1183.86 602.807Z" fill="#AAAAAA"/>
<path d="M842.733 553.399C845.569 550.393 845.119 545.945 841.743 543.46C838.367 540.935 833.371 541.336 830.58 544.342C827.744 547.348 828.194 551.796 831.57 554.28C834.901 556.805 839.897 556.405 842.733 553.399Z" fill="#AAAAAA"/>
<path d="M1112.7 564.406C1110.44 563.793 1109.16 561.665 1109.85 559.654C1110.54 557.643 1112.93 556.51 1115.19 557.124C1117.45 557.738 1118.72 559.866 1118.03 561.877C1117.34 563.887 1114.95 565.02 1112.7 564.406Z" fill="#AAAAAA"/>
<path d="M884.205 572.006C881.236 570.11 880.554 566.43 882.683 563.786C884.813 561.141 888.947 560.535 891.917 562.431C894.887 564.326 895.568 568.007 893.438 570.651C891.309 573.295 887.175 573.902 884.205 572.006Z" fill="#AAAAAA"/>
<path d="M1178.43 514.705C1178.12 511.618 1180.68 508.891 1184.14 508.613C1187.61 508.335 1190.67 510.612 1190.98 513.698C1191.3 516.784 1188.74 519.511 1185.27 519.789C1181.81 520.067 1178.74 517.791 1178.43 514.705Z" fill="#AAAAAA"/>
<path d="M971.205 547.73C970.044 545.139 971.461 542.202 974.371 541.168C977.28 540.134 980.58 541.396 981.741 543.986C982.902 546.576 981.485 549.514 978.576 550.548C975.666 551.581 972.366 550.32 971.205 547.73Z" fill="#AAAAAA"/>
<path d="M872.539 624.85C872.253 620.919 875.6 617.525 880.016 617.27C884.432 617.016 888.244 619.996 888.53 623.927C888.816 627.859 885.468 631.252 881.053 631.507C876.637 631.762 872.825 628.781 872.539 624.85Z" fill="#AAAAAA"/>
<path d="M997.251 544.609C994.214 543.095 993.129 539.677 994.829 536.973C996.528 534.269 1000.37 533.304 1003.4 534.817C1006.44 536.33 1007.53 539.749 1005.83 542.452C1004.13 545.156 1000.29 546.122 997.251 544.609Z" fill="#AAAAAA"/>
<path d="M1222.6 340.96C1223.86 339.637 1223.68 337.633 1222.15 336.511C1220.66 335.389 1218.41 335.549 1217.15 336.912C1215.89 338.235 1216.07 340.238 1217.6 341.36C1219.13 342.483 1221.34 342.282 1222.6 340.96Z" fill="#AAAAAA"/>
<path d="M779.588 596.411C779.277 593.28 781.875 590.518 785.391 590.241C788.908 589.964 792.01 592.277 792.322 595.408C792.633 598.538 790.034 601.301 786.518 601.578C783.002 601.855 779.899 599.542 779.588 596.411Z" fill="#AAAAAA"/>
<path d="M855.067 593.233C857.182 590.989 856.867 587.662 854.347 585.779C851.826 583.895 848.09 584.176 845.974 586.42C843.859 588.664 844.174 591.991 846.694 593.874C849.215 595.758 852.951 595.477 855.067 593.233Z" fill="#AAAAAA"/>
<path d="M803.251 605.538C802.756 600.556 806.891 596.159 812.487 595.718C818.084 595.277 823.022 598.959 823.517 603.942C824.012 608.924 819.877 613.321 814.281 613.762C808.684 614.203 803.746 610.521 803.251 605.538Z" fill="#AAAAAA"/>
<path d="M1034.06 645.999C1033.64 641.499 1037.39 637.548 1042.45 637.174C1047.5 636.801 1051.94 640.145 1052.36 644.645C1052.78 649.145 1049.02 653.096 1043.97 653.469C1038.91 653.843 1034.48 650.499 1034.06 645.999Z" fill="#AAAAAA"/>
<path d="M930.931 617.164C930.794 614.378 933.219 612.02 936.348 611.898C939.477 611.776 942.126 613.935 942.263 616.721C942.4 619.507 939.975 621.864 936.846 621.987C933.717 622.109 931.068 619.95 930.931 617.164Z" fill="#AAAAAA"/>
<path d="M845.355 607.955C845.138 605.772 846.95 603.846 849.401 603.653C851.853 603.46 854.016 605.072 854.233 607.255C854.45 609.438 852.639 611.364 850.187 611.557C847.735 611.75 845.572 610.137 845.355 607.955Z" fill="#AAAAAA"/>
<path d="M986.909 445.998C989.52 443.232 989.115 439.065 986.009 436.74C982.903 434.416 978.222 434.776 975.611 437.542C973 440.307 973.406 444.475 976.511 446.799C979.617 449.123 984.299 448.763 986.909 445.998Z" fill="#AAAAAA"/>
<path d="M774.991 621.425C771.224 620.36 769.14 616.777 770.337 613.423C771.534 610.069 775.558 608.213 779.325 609.279C783.093 610.345 785.176 613.927 783.979 617.282C782.783 620.636 778.758 622.491 774.991 621.425Z" fill="#AAAAAA"/>
<path d="M1018.82 600.006C1020.22 598.483 1020.04 596.239 1018.33 594.996C1016.62 593.754 1014.1 593.914 1012.7 595.437C1011.31 596.96 1011.49 599.204 1013.2 600.447C1014.91 601.689 1017.43 601.528 1018.82 600.006Z" fill="#AAAAAA"/>
<path d="M1030.04 567.76C1029.74 564.651 1032.33 561.913 1035.82 561.645C1039.31 561.377 1042.38 563.681 1042.69 566.79C1042.99 569.899 1040.4 572.637 1036.91 572.905C1033.41 573.172 1030.34 570.869 1030.04 567.76Z" fill="#AAAAAA"/>
<path d="M865.465 479.98C867.761 477.536 867.401 473.849 864.655 471.765C861.909 469.681 857.768 470.042 855.427 472.486C853.087 474.931 853.492 478.618 856.237 480.702C858.983 482.786 863.169 482.465 865.465 479.98Z" fill="#AAAAAA"/>
<path d="M1209.5 486.913C1204.43 486.913 1200.32 483.253 1200.32 478.738C1200.32 474.223 1204.43 470.562 1209.5 470.562C1214.57 470.562 1218.68 474.223 1218.68 478.738C1218.68 483.253 1214.57 486.913 1209.5 486.913Z" fill="#AAAAAA"/>
<path d="M1057.64 435.271C1057.26 432.928 1059.07 430.748 1061.71 430.403C1064.34 430.057 1066.79 431.676 1067.17 434.018C1067.56 436.361 1065.74 438.541 1063.11 438.887C1060.48 439.233 1058.03 437.613 1057.64 435.271Z" fill="#AAAAAA"/>
<path d="M1009.77 581.623C1009.72 578.237 1012.76 575.452 1016.56 575.404C1020.36 575.356 1023.49 578.061 1023.54 581.447C1023.6 584.833 1020.56 587.617 1016.76 587.666C1012.95 587.714 1009.82 585.009 1009.77 581.623Z" fill="#AAAAAA"/>
<path d="M957.003 608.047C954.582 605.017 955.378 600.814 958.782 598.658C962.185 596.502 966.907 597.211 969.328 600.242C971.749 603.272 970.953 607.475 967.549 609.631C964.146 611.786 959.424 611.077 957.003 608.047Z" fill="#AAAAAA"/>
<path d="M1245.87 314.111C1245.72 311.525 1247.96 309.32 1250.86 309.187C1253.76 309.054 1256.24 311.042 1256.39 313.628C1256.54 316.215 1254.31 318.419 1251.4 318.552C1248.5 318.686 1246.02 316.698 1245.87 314.111Z" fill="#2A1BB8"/>
<path d="M1096.34 476.415L987.044 404.399" stroke="#AAAAAA" stroke-opacity="0.02" stroke-width="0.2697" stroke-linecap="round"/>
<path d="M1288.63 431.37L1241.28 501.622" stroke="#AAAAAA" stroke-opacity="0.289" stroke-width="2.3231" stroke-linecap="round"/>
<path d="M1288.63 431.37L1232.54 442.551" stroke="#AAAAAA" stroke-opacity="0.4137" stroke-width="2.8227" stroke-linecap="round"/>
<path d="M1241.28 501.621L1232.54 442.55" stroke="#AAAAAA" stroke-opacity="0.3749" stroke-width="2.7889" stroke-linecap="round"/>
<path d="M1241.28 501.621L1286.74 541.536" stroke="#AAAAAA" stroke-opacity="0.2637" stroke-width="2.1639" stroke-linecap="round"/>
<path d="M1278.77 363.682L1232.54 442.55" stroke="#AAAAAA" stroke-opacity="0.2506" stroke-width="2.0508" stroke-linecap="round"/>
<path d="M1241.28 501.621L1315.23 477.135" stroke="#AAAAAA" stroke-opacity="0.051275" stroke-width="0.3582" stroke-linecap="round"/>
<path d="M1268.6 354.025L1200.09 344.767" stroke="#AAAAAA" stroke-opacity="0.4235" stroke-width="2.8227" stroke-linecap="round"/>
<path d="M1041.51 545.744L1080.63 537.008" stroke="#AAAAAA" stroke-opacity="0.5818" stroke-width="2.8227" stroke-linecap="round"/>
<path d="M867.761 504.586L836.657 548.87" stroke="#AAAAAA" stroke-opacity="0.080996" stroke-width="0.4989" stroke-linecap="round"/>
<path d="M1217.15 577.564L1286.74 541.536" stroke="#AAAAAA" stroke-opacity="0.2764" stroke-width="2.2499" stroke-linecap="round"/>
<path d="M1296.1 -57.0264L1251.86 37.2305" stroke="#AAAAAA" stroke-opacity="0.2211" stroke-width="1.5198" stroke-linecap="round"/>
<path d="M1221.11 369.093L1268.6 354.024" stroke="#AAAAAA" stroke-opacity="0.4286" stroke-width="2.8227" stroke-linecap="round"/>
<path d="M1221.11 369.093L1200.09 344.767" stroke="#AAAAAA" stroke-opacity="0.5605" stroke-width="2.8227" stroke-linecap="round"/>
<path d="M1237.86 -41.2773L1251.86 37.2299" stroke="#AAAAAA" stroke-opacity="0.2236" stroke-width="1.6333" stroke-linecap="round"/>
<path d="M1041.51 545.744L1113.8 560.812" stroke="#AAAAAA" stroke-opacity="0.2316" stroke-width="1.8077" stroke-linecap="round"/>
<path d="M1041.51 545.744L976.646 545.904" stroke="#AAAAAA" stroke-opacity="0.2378" stroke-width="1.9007" stroke-linecap="round"/>
<path d="M1000.1 539.692L1041.51 545.744" stroke="#AAAAAA" stroke-opacity="0.2427" stroke-width="1.9642" stroke-linecap="round"/>
<path d="M1113.8 560.813L1080.63 537.008" stroke="#AAAAAA" stroke-opacity="0.4063" stroke-width="2.8227" stroke-linecap="round"/>
<path d="M1219.9 338.916L1200.09 344.767" stroke="#AAAAAA" stroke-opacity="0.3451" stroke-width="2.6107" stroke-linecap="round"/>
<path d="M1188.25 599.685L1217.15 577.563" stroke="#AAAAAA" stroke-opacity="0.5687" stroke-width="2.8227" stroke-linecap="round"/>
<path d="M793.805 644.248L810.639 704.16" stroke="#AAAAAA" stroke-opacity="0.4371" stroke-width="2.8227" stroke-linecap="round"/>
<path d="M977.412 625.695L880.544 624.372" stroke="#AAAAAA" stroke-opacity="0.2211" stroke-width="1.5229" stroke-linecap="round"/>
<path d="M1217.15 577.564L1113.8 560.813" stroke="#AAAAAA" stroke-opacity="0.2282" stroke-width="1.7464" stroke-linecap="round"/>
<path d="M1217.15 577.564L1184.79 514.285" stroke="#AAAAAA" stroke-opacity="0.3024" stroke-width="2.394" stroke-linecap="round"/>
<path d="M835.261 676.308L793.805 644.248" stroke="#AAAAAA" stroke-opacity="0.4419" stroke-width="2.8227" stroke-linecap="round"/>
<path d="M1221.11 369.092L1219.9 338.916" stroke="#AAAAAA" stroke-opacity="0.4768" stroke-width="2.8227" stroke-linecap="round"/>
<path d="M1188.25 599.686L1113.8 560.813" stroke="#AAAAAA" stroke-opacity="0.3517" stroke-width="2.6469" stroke-linecap="round"/>
<path d="M793.805 644.248L785.927 595.877" stroke="#AAAAAA" stroke-opacity="0.3868" stroke-width="2.8227" stroke-linecap="round"/>
<path d="M1188.25 599.685L1184.79 514.285" stroke="#AAAAAA" stroke-opacity="0.2774" stroke-width="2.2565" stroke-linecap="round"/>
<path d="M888.107 567.185L836.657 548.871" stroke="#AAAAAA" stroke-opacity="0.5161" stroke-width="2.8227" stroke-linecap="round"/>
<path d="M1221.11 369.092L1301.64 379.512" stroke="#AAAAAA" stroke-opacity="0.2511" stroke-width="2.0561" stroke-linecap="round"/>
<path d="M793.805 644.249L813.385 604.734" stroke="#AAAAAA" stroke-opacity="0.3627" stroke-width="2.711" stroke-linecap="round"/>
<path d="M1184.79 514.285L1113.8 560.813" stroke="#AAAAAA" stroke-opacity="0.3438" stroke-width="2.6037" stroke-linecap="round"/>
<path d="M976.647 545.904L888.107 567.184" stroke="#AAAAAA" stroke-opacity="0.3185" stroke-width="2.4748" stroke-linecap="round"/>
<path d="M888.107 567.185L880.544 624.372" stroke="#AAAAAA" stroke-opacity="0.4643" stroke-width="2.8227" stroke-linecap="round"/>
<path d="M1000.1 539.692L976.646 545.904" stroke="#AAAAAA" stroke-opacity="0.7427" stroke-width="2.8227" stroke-linecap="round"/>
<path d="M888.107 567.185L850.521 589.827" stroke="#AAAAAA" stroke-opacity="0.5604" stroke-width="2.8227" stroke-linecap="round"/>
<path d="M835.261 676.31L880.544 624.372" stroke="#AAAAAA" stroke-opacity="0.4152" stroke-width="2.8227" stroke-linecap="round"/>
<path d="M1043.31 645.411L1061.05 694.864" stroke="#AAAAAA" stroke-opacity="0.4076" stroke-width="2.8227" stroke-linecap="round"/>
<path d="M850.521 589.826L880.544 624.371" stroke="#AAAAAA" stroke-opacity="0.5513" stroke-width="2.8227" stroke-linecap="round"/>
<path d="M936.54 616.838L888.106 567.185" stroke="#AAAAAA" stroke-opacity="0.3783" stroke-width="2.8119" stroke-linecap="round"/>
<path d="M888.107 567.185L849.756 607.58" stroke="#AAAAAA" stroke-opacity="0.4252" stroke-width="2.8227" stroke-linecap="round"/>
<path d="M1219.9 338.916L1301.64 379.512" stroke="#AAAAAA" stroke-opacity="0.309" stroke-width="2.4273" stroke-linecap="round"/>
<path d="M785.927 595.877L813.385 604.734" stroke="#AAAAAA" stroke-opacity="0.7011" stroke-width="2.8227" stroke-linecap="round"/>
<path d="M936.54 616.838L880.544 624.372" stroke="#AAAAAA" stroke-opacity="0.4686" stroke-width="2.8227" stroke-linecap="round"/>
<path d="M850.521 589.826L813.385 604.734" stroke="#AAAAAA" stroke-opacity="0.6217" stroke-width="2.8227" stroke-linecap="round"/>
<path d="M1188.25 599.685L1274 592.592" stroke="#AAAAAA" stroke-opacity="0.227" stroke-width="1.7216" stroke-linecap="round"/>
<path d="M849.755 607.58L880.544 624.372" stroke="#AAAAAA" stroke-opacity="0.5517" stroke-width="2.8227" stroke-linecap="round"/>
<path d="M849.755 607.579L785.927 595.877" stroke="#AAAAAA" stroke-opacity="0.4257" stroke-width="2.8227" stroke-linecap="round"/>
<path d="M849.756 607.579L850.521 589.826" stroke="#AAAAAA" stroke-opacity="0.7052" stroke-width="2.8227" stroke-linecap="round"/>
<path d="M849.755 607.58L813.385 604.734" stroke="#AAAAAA" stroke-opacity="0.6093" stroke-width="2.8227" stroke-linecap="round"/>
<path d="M777.33 615.354L785.927 595.877" stroke="#AAAAAA" stroke-opacity="0.5315" stroke-width="2.8227" stroke-linecap="round"/>
<path d="M777.33 615.354L850.521 589.826" stroke="#AAAAAA" stroke-opacity="0.3598" stroke-width="2.6936" stroke-linecap="round"/>
<path d="M777.33 615.354L813.385 604.734" stroke="#AAAAAA" stroke-opacity="0.5378" stroke-width="2.8227" stroke-linecap="round"/>
<path d="M860.469 476.253L836.657 548.87" stroke="#AAAAAA" stroke-opacity="0.098936" stroke-width="0.5875" stroke-linecap="round"/>
<path d="M936.54 616.838L889.682 663.045" stroke="#AAAAAA" stroke-opacity="0.43" stroke-width="2.8227" stroke-linecap="round"/>
<path d="M1209.5 478.738L1184.79 514.285" stroke="#AAAAAA" stroke-opacity="0.2231" stroke-width="1.6155" stroke-linecap="round"/>
<path d="M936.54 616.838L894.318 676.63" stroke="#AAAAAA" stroke-opacity="0.3831" stroke-width="2.8227" stroke-linecap="round"/>
<path d="M1000.1 539.692L1036.33 567.224" stroke="#AAAAAA" stroke-opacity="0.2552" stroke-width="2.0948" stroke-linecap="round"/>
<path d="M860.469 476.253L850.521 589.826" stroke="#AAAAAA" stroke-opacity="0.01" stroke-width="0.1668" stroke-linecap="round"/>
<path d="M1043.31 645.411L1015.76 597.722" stroke="#AAAAAA" stroke-opacity="0.2948" stroke-width="2.3546" stroke-linecap="round"/>
<path d="M1043.31 645.411L1015 698.07" stroke="#AAAAAA" stroke-opacity="0.2911" stroke-width="2.3347" stroke-linecap="round"/>
<path d="M1209.5 478.739L1346.97 471.766" stroke="#AAAAAA" stroke-opacity="0.1241" stroke-width="0.689" stroke-linecap="round"/>
<path d="M860.469 476.253L981.238 441.789" stroke="#AAAAAA" stroke-opacity="0.24" stroke-width="1.2487" stroke-linecap="round"/>
<path d="M1062.4 434.735L981.238 441.789" stroke="#AAAAAA" stroke-opacity="0.2414" stroke-width="1.9487" stroke-linecap="round"/>
<path d="M1287.1 460.344L1209.5 478.738" stroke="#AAAAAA" stroke-opacity="0.3992" stroke-width="2.8227" stroke-linecap="round"/>
<path d="M1015.76 597.722L1036.33 567.225" stroke="#AAAAAA" stroke-opacity="0.6302" stroke-width="2.8227" stroke-linecap="round"/>
<path d="M1062.4 434.735L1036.33 567.224" stroke="#AAAAAA" stroke-opacity="0.081867" stroke-width="0.5032" stroke-linecap="round"/>
<path d="M1062.4 434.735L1209.5 478.738" stroke="#AAAAAA" stroke-opacity="0.068703" stroke-width="0.4382" stroke-linecap="round"/>
<path d="M1015.76 597.722L1016.66 581.531" stroke="#AAAAAA" stroke-opacity="0.4834" stroke-width="2.8227" stroke-linecap="round"/>
<path d="M1036.33 567.225L1016.66 581.531" stroke="#AAAAAA" stroke-opacity="0.5057" stroke-width="2.8227" stroke-linecap="round"/>
<path d="M1016.66 581.531L1015 698.07" stroke="#AAAAAA" stroke-opacity="0.1694" stroke-width="0.8866" stroke-linecap="round"/>
<path d="M963.368 604.134L1015.76 597.722" stroke="#AAAAAA" stroke-opacity="0.2492" stroke-width="2.0373" stroke-linecap="round"/>
<path d="M963.368 604.134L1036.33 567.225" stroke="#AAAAAA" stroke-opacity="0.2237" stroke-width="1.6343" stroke-linecap="round"/>
<path d="M963.368 604.134L1016.66 581.531" stroke="#AAAAAA" stroke-opacity="0.461" stroke-width="2.8227" stroke-linecap="round"/>
<path d="M933.524 709.691L963.368 604.133" stroke="#AAAAAA" stroke-opacity="0.2227" stroke-width="1.5994" stroke-linecap="round"/>
<path d="M1250.86 318.797C1251.72 317.916 1251.58 316.553 1250.55 315.792C1249.51 315.03 1248.03 315.151 1247.17 316.072C1246.32 316.954 1246.45 318.317 1247.49 319.078C1248.52 319.799 1250.01 319.679 1250.86 318.797Z" fill="#D2D2D2" fill-opacity="0.5"/>
<path d="M1016.48 512.339C1016.35 511.084 1017.38 509.966 1018.79 509.844C1020.2 509.721 1021.45 510.64 1021.59 511.896C1021.73 513.151 1020.7 514.268 1019.29 514.391C1017.88 514.513 1016.62 513.595 1016.48 512.339Z" fill="#D2D2D2" fill-opacity="0.5"/>
<path d="M1173.35 60.8343C1173.49 60.674 1173.49 60.4335 1173.31 60.3133C1173.13 60.193 1172.86 60.193 1172.72 60.3533C1172.59 60.5136 1172.59 60.7541 1172.77 60.8743C1172.9 61.0346 1173.17 60.9946 1173.35 60.8343Z" fill="#D2D2D2" fill-opacity="0.5"/>
<path d="M1135.14 436.82C1136.31 435.538 1136.13 433.654 1134.73 432.612C1133.34 431.57 1131.18 431.731 1130.01 432.973C1128.83 434.215 1129.01 436.139 1130.41 437.181C1131.81 438.223 1133.97 438.062 1135.14 436.82Z" fill="#D2D2D2" fill-opacity="0.5"/>
<path d="M808.376 632.499C808.26 631.331 809.23 630.299 810.542 630.196C811.855 630.093 813.013 630.956 813.129 632.125C813.245 633.293 812.275 634.324 810.963 634.427C809.651 634.531 808.493 633.668 808.376 632.499Z" fill="#D2D2D2" fill-opacity="0.5"/>
<path d="M1014.64 321.764C1015.58 320.762 1015.45 319.24 1014.32 318.398C1013.2 317.556 1011.49 317.677 1010.54 318.679C1009.6 319.68 1009.73 321.203 1010.86 322.045C1011.98 322.886 1013.69 322.766 1014.64 321.764Z" fill="#D2D2D2" fill-opacity="0.5"/>
<path d="M889.231 609.584C890.222 608.542 890.087 606.979 888.871 606.097C887.701 605.215 885.946 605.336 884.955 606.418C883.965 607.46 884.1 609.023 885.315 609.904C886.441 610.746 888.241 610.625 889.231 609.584Z" fill="#D2D2D2" fill-opacity="0.5"/>
<path d="M1173.44 472.366C1174.43 471.324 1174.25 469.802 1173.08 468.92C1171.91 468.038 1170.2 468.199 1169.21 469.241C1168.22 470.283 1168.4 471.805 1169.57 472.687C1170.74 473.529 1172.45 473.408 1173.44 472.366Z" fill="#D2D2D2" fill-opacity="0.5"/>
<path d="M1134.48 509.867C1133.24 509.834 1132.26 508.91 1132.3 507.804C1132.34 506.698 1133.38 505.828 1134.62 505.861C1135.86 505.894 1136.84 506.818 1136.8 507.924C1136.76 509.03 1135.73 509.9 1134.48 509.867Z" fill="#D2D2D2" fill-opacity="0.5"/>
<path d="M1188.21 449.002C1189.51 447.64 1189.29 445.596 1187.76 444.434C1186.23 443.271 1183.93 443.472 1182.63 444.834C1181.32 446.197 1181.54 448.241 1183.08 449.403C1184.65 450.565 1186.95 450.365 1188.21 449.002Z" fill="#D2D2D2" fill-opacity="0.5"/>
<path d="M797.721 284.775C798.531 283.933 798.396 282.651 797.451 281.929C796.506 281.208 795.065 281.328 794.255 282.17C793.445 283.011 793.58 284.294 794.525 285.015C795.47 285.736 796.91 285.616 797.721 284.775Z" fill="#D2D2D2" fill-opacity="0.5"/>
<path d="M1153.73 590.227C1154.94 588.944 1154.72 587.061 1153.32 586.019C1151.88 584.937 1149.77 585.137 1148.6 586.38C1147.38 587.662 1147.61 589.545 1149 590.587C1150.4 591.669 1152.51 591.509 1153.73 590.227Z" fill="#2A1BB8" fill-opacity="0.5"/>
<path d="M796.055 465.114C796.73 464.392 796.64 463.27 795.83 462.669C795.02 462.068 793.759 462.148 793.084 462.869C792.409 463.591 792.499 464.713 793.309 465.314C794.12 465.915 795.38 465.835 796.055 465.114Z" fill="#D2D2D2" fill-opacity="0.5"/>
<path d="M788.763 536.126C789.483 535.365 789.393 534.202 788.493 533.521C787.638 532.88 786.332 532.96 785.567 533.762C784.847 534.523 784.937 535.685 785.837 536.367C786.737 537.048 788.043 536.888 788.763 536.126Z" fill="#D2D2D2" fill-opacity="0.5"/>
<path d="M1181.77 295.515C1183.03 294.152 1182.85 292.149 1181.32 291.026C1179.79 289.904 1177.54 290.065 1176.28 291.427C1175.02 292.79 1175.2 294.793 1176.73 295.916C1178.26 297.038 1180.51 296.837 1181.77 295.515Z" fill="#D2D2D2" fill-opacity="0.5"/>
<path d="M1220.26 635.753C1221.11 634.831 1220.98 633.468 1219.94 632.707C1218.91 631.946 1217.38 632.066 1216.52 632.987C1215.66 633.909 1215.8 635.272 1216.83 636.033C1217.87 636.795 1219.4 636.674 1220.26 635.753Z" fill="#D2D2D2" fill-opacity="0.5"/>
<path d="M483.936 642.165C484.656 641.404 484.566 640.242 483.666 639.6C482.811 638.959 481.505 639.039 480.785 639.841C480.065 640.602 480.155 641.764 481.055 642.406C481.91 643.007 483.216 642.927 483.936 642.165Z" fill="#2A1BB8" fill-opacity="0.5"/>
<path d="M1066.09 470.123C1066.63 469.562 1066.54 468.68 1065.91 468.199C1065.28 467.718 1064.29 467.798 1063.75 468.359C1063.21 468.92 1063.3 469.802 1063.93 470.283C1064.6 470.764 1065.55 470.684 1066.09 470.123Z" fill="#D2D2D2" fill-opacity="0.5"/>
<path d="M1214.36 518.414C1214.9 517.853 1214.81 517.011 1214.18 516.53C1213.55 516.049 1212.6 516.129 1212.06 516.69C1211.52 517.251 1211.61 518.093 1212.24 518.574C1212.87 519.055 1213.82 518.975 1214.36 518.414Z" fill="#2A1BB8" fill-opacity="0.5"/>
<path d="M998.433 437.782C1000.14 435.979 999.873 433.294 997.848 431.771C995.822 430.248 992.806 430.488 991.096 432.292C989.385 434.095 989.656 436.78 991.681 438.303C993.707 439.826 996.723 439.585 998.433 437.782Z" fill="#D2D2D2" fill-opacity="0.5"/>
<path d="M677.717 552.997C678.572 552.116 678.437 550.793 677.401 550.032C676.366 549.27 674.926 549.39 674.071 550.312C673.215 551.194 673.35 552.516 674.386 553.278C675.421 554.039 676.861 553.879 677.717 552.997Z" fill="#D2D2D2" fill-opacity="0.5"/>
<path d="M505.408 345.849C505.993 345.208 505.903 344.286 505.182 343.725C504.462 343.204 503.427 343.284 502.797 343.925C502.212 344.566 502.302 345.488 503.022 346.049C503.742 346.57 504.822 346.49 505.408 345.849Z" fill="#D2D2D2" fill-opacity="0.5"/>
<path d="M746.901 11.3023C747.171 11.0218 747.126 10.621 746.811 10.3805C746.496 10.1401 746.046 10.1802 745.776 10.4607C745.506 10.7412 745.551 11.142 745.866 11.3824C746.136 11.6229 746.631 11.5828 746.901 11.3023Z" fill="#D2D2D2" fill-opacity="0.5"/>
<path d="M1206.21 334.548C1207.79 332.865 1207.56 330.34 1205.67 328.938C1203.78 327.535 1200.95 327.735 1199.37 329.419C1197.79 331.102 1198.02 333.626 1199.91 335.029C1201.8 336.472 1204.64 336.231 1206.21 334.548Z" fill="#D2D2D2" fill-opacity="0.5"/>
<path d="M1207.7 593.274C1208.51 592.433 1208.37 591.15 1207.43 590.429C1206.48 589.707 1205.04 589.828 1204.23 590.669C1203.42 591.511 1203.56 592.793 1204.5 593.514C1205.49 594.236 1206.89 594.156 1207.7 593.274Z" fill="#D2D2D2" fill-opacity="0.5"/>
<path d="M656.605 454.653C657.596 453.611 657.416 452.048 656.245 451.207C655.075 450.325 653.319 450.485 652.374 451.527C651.384 452.569 651.564 454.132 652.734 454.974C653.905 455.855 655.66 455.695 656.605 454.653Z" fill="#D2D2D2" fill-opacity="0.5"/>
<path d="M686.404 494.689C687.304 493.727 687.169 492.284 686.089 491.483C685.008 490.681 683.388 490.801 682.488 491.763C681.587 492.725 681.722 494.168 682.803 494.969C683.883 495.771 685.504 495.65 686.404 494.689Z" fill="#2A1BB8" fill-opacity="0.5"/>
<path d="M1222.19 391.455C1222.69 390.934 1222.6 390.172 1222.01 389.731C1221.43 389.291 1220.57 389.371 1220.08 389.892C1219.58 390.413 1219.67 391.174 1220.26 391.615C1220.8 392.056 1221.7 391.976 1222.19 391.455Z" fill="#D2D2D2" fill-opacity="0.5"/>
<path d="M634.459 456.417C635.359 455.455 635.224 454.012 634.144 453.211C633.064 452.409 631.443 452.529 630.543 453.491C629.643 454.453 629.778 455.896 630.858 456.697C631.938 457.499 633.559 457.379 634.459 456.417Z" fill="#D2D2D2" fill-opacity="0.5"/>
<path d="M768.958 518.051C769.903 517.01 769.768 515.487 768.598 514.645C767.427 513.803 765.717 513.924 764.771 514.966C763.826 516.008 763.961 517.53 765.132 518.372C766.257 519.214 767.967 519.093 768.958 518.051Z" fill="#D2D2D2" fill-opacity="0.5"/>
<path d="M1048.04 47.0076C1049.43 45.5248 1049.21 43.3607 1047.54 42.1183C1045.88 40.876 1043.45 41.0764 1042.05 42.5592C1040.66 44.042 1040.88 46.206 1042.55 47.4484C1044.21 48.6907 1046.64 48.4904 1048.04 47.0076Z" fill="#D2D2D2" fill-opacity="0.5"/>
<path d="M839.873 336.8C839.464 335.454 840.358 334.068 841.87 333.704C843.382 333.34 844.939 334.136 845.348 335.482C845.757 336.828 844.863 338.214 843.351 338.578C841.839 338.942 840.282 338.146 839.873 336.8Z" fill="#D2D2D2" fill-opacity="0.5"/>
<path d="M872.663 527.244C870.47 526.526 869.347 524.361 870.153 522.408C870.96 520.455 873.392 519.455 875.585 520.173C877.779 520.892 878.902 523.057 878.095 525.009C877.288 526.962 874.856 527.963 872.663 527.244Z" fill="#2A1BB8" fill-opacity="0.5"/>
<path d="M1073.38 233.959C1074.64 232.636 1074.41 230.633 1072.93 229.55C1071.44 228.468 1069.19 228.629 1067.98 229.951C1066.72 231.274 1066.94 233.277 1068.43 234.36C1069.91 235.482 1072.12 235.281 1073.38 233.959Z" fill="#2A1BB8" fill-opacity="0.5"/>
<path d="M1064.29 397.867C1065.5 396.585 1065.32 394.621 1063.84 393.539C1062.4 392.457 1060.19 392.618 1058.98 393.94C1057.76 395.262 1057.94 397.186 1059.43 398.268C1060.91 399.35 1063.03 399.15 1064.29 397.867Z" fill="#2A1BB8" fill-opacity="0.5"/>
<path d="M821.172 476.934C822.388 475.652 822.208 473.728 820.767 472.646C819.327 471.564 817.166 471.724 815.951 473.047C814.736 474.329 814.916 476.253 816.356 477.335C817.797 478.417 819.957 478.257 821.172 476.934Z" fill="#D2D2D2" fill-opacity="0.5"/>
<path d="M822.298 633.709C823.378 632.547 823.243 630.783 821.893 629.821C820.587 628.86 818.607 628.98 817.526 630.182C816.446 631.344 816.581 633.108 817.932 634.069C819.282 635.031 821.217 634.871 822.298 633.709Z" fill="#2A1BB8" fill-opacity="0.5"/>
<path d="M703.509 571.472C704.364 570.55 704.229 569.228 703.193 568.466C702.158 567.705 700.673 567.825 699.818 568.747C698.962 569.668 699.097 570.991 700.133 571.752C701.168 572.514 702.653 572.353 703.509 571.472Z" fill="#2A1BB8" fill-opacity="0.5"/>
<path d="M1109.97 639.841C1110.78 638.959 1110.65 637.677 1109.7 636.916C1108.71 636.194 1107.27 636.314 1106.42 637.156C1105.61 638.038 1105.74 639.32 1106.69 640.081C1107.72 640.843 1109.16 640.723 1109.97 639.841Z" fill="#D2D2D2" fill-opacity="0.5"/>
<path d="M937.035 457.579C937.891 456.657 937.756 455.335 936.72 454.573C935.685 453.812 934.2 453.932 933.345 454.854C932.489 455.775 932.624 457.098 933.659 457.859C934.695 458.581 936.18 458.46 937.035 457.579Z" fill="#D2D2D2" fill-opacity="0.5"/>
<path d="M1043.54 304.932C1042.09 304.932 1040.92 303.891 1040.92 302.607C1040.92 301.324 1042.09 300.283 1043.54 300.283C1044.98 300.283 1046.15 301.324 1046.15 302.607C1046.15 303.891 1044.98 304.932 1043.54 304.932Z" fill="#2A1BB8" fill-opacity="0.5"/>
<path d="M1173.58 160.301C1174.3 159.5 1174.21 158.338 1173.31 157.656C1172.41 157.015 1171.1 157.095 1170.34 157.897C1169.62 158.698 1169.71 159.861 1170.61 160.542C1171.51 161.223 1172.81 161.103 1173.58 160.301Z" fill="#D2D2D2" fill-opacity="0.5"/>
<path d="M1005.1 585.339C1006.18 584.176 1006 582.493 1004.74 581.531C1003.47 580.57 1001.54 580.73 1000.46 581.852C999.379 582.974 999.558 584.697 1000.82 585.659C1002.08 586.621 1004.01 586.501 1005.1 585.339Z" fill="#2A1BB8" fill-opacity="0.5"/>
<path d="M1140.63 646.854C1141.66 645.772 1141.48 644.129 1140.27 643.207C1139.05 642.286 1137.21 642.446 1136.17 643.528C1135.14 644.61 1135.32 646.253 1136.53 647.175C1137.75 648.097 1139.59 647.936 1140.63 646.854Z" fill="#D2D2D2" fill-opacity="0.5"/>
<path d="M1191.31 446.638C1192.21 445.676 1192.08 444.274 1191 443.472C1189.92 442.671 1188.34 442.791 1187.44 443.753C1186.54 444.715 1186.68 446.117 1187.76 446.919C1188.84 447.68 1190.41 447.56 1191.31 446.638Z" fill="#2A1BB8" fill-opacity="0.5"/>
<path d="M1191.72 512.041C1192.39 511.319 1192.3 510.197 1191.49 509.596C1190.68 508.995 1189.42 509.075 1188.75 509.797C1188.07 510.518 1188.16 511.64 1188.97 512.241C1189.78 512.842 1191 512.802 1191.72 512.041Z" fill="#D2D2D2" fill-opacity="0.5"/>
<path d="M1186.09 513.444C1187.04 512.442 1186.9 510.919 1185.78 510.077C1184.65 509.236 1182.94 509.356 1182 510.358C1181.05 511.36 1181.18 512.883 1182.31 513.724C1183.44 514.566 1185.15 514.445 1186.09 513.444Z" fill="#2A1BB8" fill-opacity="0.5"/>
<path d="M1238.4 496.331C1239.93 494.688 1239.7 492.283 1237.86 490.921C1236.01 489.558 1233.31 489.759 1231.78 491.402C1230.25 493.045 1230.47 495.449 1232.32 496.812C1234.12 498.174 1236.87 497.974 1238.4 496.331Z" fill="#2A1BB8" fill-opacity="0.5"/>
<path d="M1233.99 639.841C1235.16 638.599 1234.98 636.795 1233.58 635.753C1232.18 634.711 1230.16 634.872 1228.99 636.114C1227.82 637.356 1228 639.16 1229.39 640.202C1230.79 641.203 1232.81 641.043 1233.99 639.841Z" fill="#2A1BB8" fill-opacity="0.5"/>
<path d="M1161.15 116.82C1161.96 115.978 1161.83 114.696 1160.88 113.975C1159.94 113.253 1158.5 113.374 1157.69 114.215C1156.88 115.057 1157.01 116.339 1157.96 117.06C1158.9 117.782 1160.34 117.662 1161.15 116.82Z" fill="#D2D2D2" fill-opacity="0.5"/>
<path d="M1005.45 561.735C1006.04 561.093 1005.95 560.172 1005.23 559.651C1004.51 559.13 1003.47 559.21 1002.89 559.851C1002.3 560.492 1002.39 561.414 1003.11 561.935C1003.83 562.456 1004.87 562.376 1005.45 561.735Z" fill="#D2D2D2" fill-opacity="0.5"/>
<path d="M942.527 65.483C943.157 64.8018 943.067 63.7999 942.302 63.1988C941.537 62.6377 940.411 62.7179 939.736 63.3991C939.106 64.0804 939.196 65.0823 939.961 65.6834C940.726 66.2445 941.897 66.1643 942.527 65.483Z" fill="#D2D2D2" fill-opacity="0.5"/>
<path d="M1142.88 363.682C1143.24 363.281 1143.19 362.68 1142.74 362.36C1142.29 362.039 1141.62 362.079 1141.26 362.48C1140.9 362.881 1140.94 363.482 1141.39 363.803C1141.84 364.123 1142.52 364.043 1142.88 363.682Z" fill="#D2D2D2" fill-opacity="0.5"/>
<path d="M1048.85 435.056C1049.84 434.014 1049.7 432.411 1048.49 431.53C1047.32 430.648 1045.52 430.768 1044.53 431.85C1043.54 432.932 1043.67 434.495 1044.89 435.377C1046.1 436.259 1047.86 436.138 1048.85 435.056Z" fill="#D2D2D2" fill-opacity="0.5"/>
<path d="M889.952 608.341C891.122 607.059 890.942 605.215 889.547 604.133C888.106 603.091 886.036 603.252 884.82 604.494C883.605 605.736 883.83 607.62 885.226 608.702C886.666 609.744 888.782 609.583 889.952 608.341Z" fill="#2A1BB8" fill-opacity="0.5"/>
<path d="M1157.86 123.612C1157.56 122.537 1158.3 121.452 1159.51 121.189C1160.72 120.926 1161.94 121.584 1162.23 122.659C1162.53 123.734 1161.79 124.819 1160.58 125.082C1159.37 125.345 1158.15 124.687 1157.86 123.612Z" fill="#2A1BB8" fill-opacity="0.5"/>
<path d="M1100.03 529.474C1101.33 528.072 1101.15 525.988 1099.58 524.786C1098 523.623 1095.66 523.784 1094.31 525.186C1093 526.589 1093.18 528.673 1094.76 529.875C1096.34 531.078 1098.68 530.877 1100.03 529.474Z" fill="#2A1BB8" fill-opacity="0.5"/>
<path d="M1112.59 352.181C1113.35 351.38 1113.22 350.178 1112.32 349.496C1111.41 348.815 1110.06 348.935 1109.3 349.737C1108.53 350.538 1108.67 351.741 1109.57 352.422C1110.51 353.103 1111.86 353.023 1112.59 352.181Z" fill="#D2D2D2" fill-opacity="0.5"/>
<path d="M880.274 496.651C878.584 496.651 877.213 495.431 877.213 493.926C877.213 492.421 878.584 491.201 880.274 491.201C881.965 491.201 883.335 492.421 883.335 493.926C883.335 495.431 881.965 496.651 880.274 496.651Z" fill="#D2D2D2" fill-opacity="0.5"/>
<path d="M1070.23 291.547C1071.71 289.984 1071.49 287.62 1069.69 286.297C1067.93 284.975 1065.28 285.175 1063.79 286.778C1062.31 288.381 1062.53 290.706 1064.33 292.028C1066.13 293.351 1068.74 293.11 1070.23 291.547Z" fill="#D2D2D2" fill-opacity="0.5"/>
<path d="M990.331 603.733C991.366 602.611 991.231 600.927 989.97 600.006C988.71 599.084 986.82 599.204 985.784 600.326C984.749 601.448 984.884 603.132 986.144 604.053C987.405 604.975 989.295 604.855 990.331 603.733Z" fill="#D2D2D2" fill-opacity="0.5"/>
<path d="M1160.07 587.743C1161.15 586.581 1161.02 584.858 1159.67 583.856C1158.36 582.894 1156.43 583.014 1155.3 584.217C1154.22 585.379 1154.36 587.102 1155.71 588.104C1157.01 589.066 1158.95 588.905 1160.07 587.743Z" fill="#D2D2D2" fill-opacity="0.5"/>
<path d="M1062.73 364.74C1062.54 362.821 1064.13 361.129 1066.28 360.959C1068.44 360.789 1070.34 362.207 1070.53 364.125C1070.72 366.043 1069.13 367.735 1066.97 367.905C1064.82 368.075 1062.92 366.658 1062.73 364.74Z" fill="#D2D2D2" fill-opacity="0.5"/>
<path d="M1065.68 144.63C1065.95 144.31 1065.91 143.869 1065.59 143.629C1065.23 143.388 1064.74 143.428 1064.47 143.709C1064.2 144.029 1064.24 144.47 1064.56 144.711C1064.87 144.991 1065.37 144.951 1065.68 144.63Z" fill="#D2D2D2" fill-opacity="0.5"/>
<path d="M1189.83 370.054C1190.28 369.574 1190.19 368.892 1189.69 368.491C1189.15 368.091 1188.39 368.171 1187.94 368.612C1187.49 369.093 1187.58 369.774 1188.07 370.175C1188.61 370.575 1189.42 370.535 1189.83 370.054Z" fill="#2A1BB8" fill-opacity="0.5"/>
<path d="M1088.91 294.152C1089.58 293.43 1089.49 292.348 1088.68 291.747C1087.87 291.146 1086.66 291.226 1085.98 291.947C1085.31 292.669 1085.4 293.751 1086.21 294.352C1087.02 294.953 1088.23 294.873 1088.91 294.152Z" fill="#D2D2D2" fill-opacity="0.5"/>
<path d="M1233.26 280.727C1234.12 279.805 1233.99 278.442 1232.95 277.681C1231.91 276.92 1230.38 277.04 1229.53 277.962C1228.67 278.883 1228.81 280.246 1229.84 281.007C1230.88 281.769 1232.41 281.648 1233.26 280.727Z" fill="#D2D2D2" fill-opacity="0.5"/>
<path d="M631.893 614.393C633.109 613.11 632.884 611.227 631.488 610.145C630.048 609.063 627.932 609.263 626.717 610.506C625.501 611.748 625.726 613.671 627.122 614.753C628.517 615.835 630.678 615.675 631.893 614.393Z" fill="#D2D2D2" fill-opacity="0.5"/>
<path d="M829.905 604.814C830.22 604.493 830.175 603.973 829.815 603.692C829.455 603.412 828.87 603.451 828.554 603.772C828.239 604.093 828.284 604.614 828.645 604.894C829.005 605.175 829.59 605.135 829.905 604.814Z" fill="#D2D2D2" fill-opacity="0.5"/>
<path d="M1195.59 26.8097C1195.95 26.4089 1195.9 25.8078 1195.45 25.4872C1195 25.1666 1194.33 25.2067 1193.97 25.6074C1193.61 26.0082 1193.65 26.6093 1194.1 26.9299C1194.55 27.2505 1195.23 27.2104 1195.59 26.8097Z" fill="#D2D2D2" fill-opacity="0.5"/>
</svg>
