<svg width="120" height="36" viewBox="0 0 120 36" fill="none" xmlns="http://www.w3.org/2000/svg">
<path d="M119.999 0H91.7624L84.7031 7.05927V11.7629L112.948 28.2295H84.7031V35.2887H112.94L119.999 28.2371V23.5258L91.77 7.05927H119.999V0Z" fill="white"/>
<path d="M28.2066 14.1185H7.0669V7.05165H28.2066V0H0V35.2964H28.2066L35.2735 28.1913V21.1778L28.2066 14.1185ZM28.2066 28.2371H7.0669V21.1778H28.2066V28.2371Z" fill="white"/>
<path d="M35.2959 7.04402V14.1109H28.229V0L35.2959 7.04402Z" fill="#0033A0"/>
<path d="M70.5849 0H49.4147L42.3555 7.05165V35.2582H49.4071V21.1778H70.5849V35.2887H77.6442V7.08214L70.5849 0ZM70.5849 14.1185H49.4071V7.05165H70.5849V14.1185Z" fill="white"/>
</svg>
