<svg width="24" height="18" viewBox="0 0 24 18" fill="none" xmlns="http://www.w3.org/2000/svg">
<path opacity="0.7" d="M24 15.0795V2.38105C24 1.20997 23.0547 0.264648 21.8836 0.264648H2.1164C0.945326 0.264648 0 1.20997 0 2.38105V15.0795C0 16.2505 0.945326 17.1959 2.1164 17.1959H21.8836C23.0547 17.1959 24 16.2505 24 15.0795ZM22.1517 2.22585C22.6173 2.69146 22.3633 3.17117 22.1093 3.41103L16.381 8.65971L21.8836 14.3881C22.0529 14.5856 22.1658 14.896 21.9683 15.1077C21.7848 15.3334 21.3616 15.3193 21.1781 15.1782L15.0123 9.91544L11.9929 12.6668L8.98765 9.91544L2.82187 15.1782C2.63845 15.3193 2.21517 15.3334 2.03175 15.1077C1.83422 14.896 1.94709 14.5856 2.1164 14.3881L7.61905 8.65971L1.89065 3.41103C1.63668 3.17117 1.38272 2.69146 1.84832 2.22585C2.31393 1.76024 2.79365 1.98599 3.18871 2.32461L11.9929 9.43572L20.8113 2.32461C21.2063 1.98599 21.6861 1.76024 22.1517 2.22585Z" fill="#D2D2D2"/>
</svg>
