<svg width="34" height="27" viewBox="0 0 34 27" fill="none" xmlns="http://www.w3.org/2000/svg">
<path d="M20.9156 26.1534C20.7435 26.1544 20.5729 26.1214 20.4136 26.0563C20.2544 25.9913 20.1095 25.8954 19.9873 25.7742C19.8648 25.6527 19.7675 25.5081 19.7011 25.3488C19.6348 25.1894 19.6006 25.0186 19.6006 24.846C19.6006 24.6734 19.6348 24.5025 19.7011 24.3432C19.7675 24.1838 19.8648 24.0393 19.9873 23.9177L30.8387 13.0794L19.9873 2.241C19.7411 1.99482 19.6028 1.66091 19.6028 1.31275C19.6028 0.964587 19.7411 0.630684 19.9873 0.384496C20.2335 0.138307 20.5674 0 20.9156 0C21.2637 0 21.5976 0.138307 21.8438 0.384496L33.6104 12.1511C33.733 12.2726 33.8302 12.4172 33.8966 12.5766C33.963 12.7359 33.9972 12.9068 33.9972 13.0794C33.9972 13.2519 33.963 13.4228 33.8966 13.5822C33.8302 13.7415 33.733 13.8861 33.6104 14.0076L21.8438 25.7742C21.7217 25.8954 21.5768 25.9913 21.4175 26.0563C21.2582 26.1214 21.0876 26.1544 20.9156 26.1534Z" fill="#F4F4F4"/>
<path d="M32.685 14.3868H1.3074C0.960656 14.3868 0.628114 14.249 0.382929 14.0038C0.137744 13.7587 0 13.4261 0 13.0794C0 12.7326 0.137744 12.4001 0.382929 12.1549C0.628114 11.9097 0.960656 11.772 1.3074 11.772H32.685C33.0318 11.772 33.3643 11.9097 33.6095 12.1549C33.8547 12.4001 33.9924 12.7326 33.9924 13.0794C33.9924 13.4261 33.8547 13.7587 33.6095 14.0038C33.3643 14.249 33.0318 14.3868 32.685 14.3868Z" fill="#F4F4F4"/>
</svg>
